HIERARCHY
ROOT Hips
{
	OFFSET 0.000000 0.000000 0.000000
	CHANNELS 6 Xposition Yposition Zposition Zrotation Yrotation Xrotation 
	JOINT LHipJoint
	{
		OFFSET 0.000000 0.000000 0.000000
		CHANNELS 3 Zrotation Yrotation Xrotation
		JOINT LeftUpLeg
		{
			OFFSET 1.363060 -1.794630 0.839290
			CHANNELS 3 Zrotation Yrotation Xrotation
			JOINT LeftLeg
			{
				OFFSET 2.448110 -6.726130 0.000000
				CHANNELS 3 Zrotation Yrotation Xrotation
				JOINT LeftFoot
				{
					OFFSET 2.562200 -7.039590 0.000000
					CHANNELS 3 Zrotation Yrotation Xrotation
					JOINT LeftToeBase
					{
						OFFSET 0.157640 -0.433110 2.322550
						CHANNELS 3 Zrotation Yrotation Xrotation
						End Site
						{
							OFFSET 0.000000 0.000000 0.000000
						}
					}
				}
			}
		}
	}
	JOINT RHipJoint
	{
		OFFSET 0.000000 0.000000 0.000000
		CHANNELS 3 Zrotation Yrotation Xrotation
		JOINT RightUpLeg
		{
			OFFSET -1.305520 -1.794630 0.839290
			CHANNELS 3 Zrotation Yrotation Xrotation
			JOINT RightLeg
			{
				OFFSET -2.542530 -6.985550 0.000000
				CHANNELS 3 Zrotation Yrotation Xrotation
				JOINT RightFoot
				{
					OFFSET -2.568260 -7.056230 0.000000
					CHANNELS 3 Zrotation Yrotation Xrotation
					JOINT RightToeBase
					{
						OFFSET -0.164730 -0.452590 2.363150
						CHANNELS 3 Zrotation Yrotation Xrotation
						End Site
						{
							OFFSET 0.000000 0.000000 0.000000
						}
					}
				}
			}
		}
	}
	JOINT LowerBack
	{
		OFFSET 0.000000 0.000000 0.000000
		CHANNELS 3 Zrotation Yrotation Xrotation
		JOINT Spine
		{
			OFFSET 0.028270 2.035590 -0.193380
			CHANNELS 3 Zrotation Yrotation Xrotation
			JOINT Spine1
			{
				OFFSET 0.056720 2.048850 -0.042750
				CHANNELS 3 Zrotation Yrotation Xrotation
				JOINT Neck
				{
					OFFSET 0.000000 0.000000 0.000000
					CHANNELS 3 Zrotation Yrotation Xrotation
					JOINT Neck1
					{
						OFFSET -0.054170 1.746240 0.172020
						CHANNELS 3 Zrotation Yrotation Xrotation
						JOINT Head
						{
							OFFSET 0.104070 1.761360 -0.123970
							CHANNELS 3 Zrotation Yrotation Xrotation
							End Site
							{
								OFFSET 0.000000 0.000000 0.000000
							}
						}
					}
				}
				JOINT LeftShoulder
				{
					OFFSET 0.000000 0.000000 0.000000
					CHANNELS 3 Zrotation Yrotation Xrotation
					JOINT LeftArm
					{
						OFFSET 3.362410 1.200890 -0.311210
						CHANNELS 3 Zrotation Yrotation Xrotation
						JOINT LeftForeArm
						{
							OFFSET 4.983000 -0.000000 -0.000000
							CHANNELS 3 Zrotation Yrotation Xrotation
							JOINT LeftHand
							{
								OFFSET 3.483560 -0.000000 -0.000000
								CHANNELS 3 Zrotation Yrotation Xrotation
								JOINT LeftFingerBase
								{
									OFFSET 0.000000 0.000000 0.000000
									CHANNELS 3 Zrotation Yrotation Xrotation
									JOINT LeftHandIndex1
									{
										OFFSET 0.715260 -0.000000 -0.000000
										CHANNELS 3 Zrotation Yrotation Xrotation
										End Site
										{
											OFFSET 0.000000 0.000000 0.000000
										}
									}
								}
								JOINT LThumb
								{
									OFFSET 0.000000 0.000000 0.000000
									CHANNELS 3 Zrotation Yrotation Xrotation
									End Site
									{
										OFFSET 0.000000 0.000000 0.000000
									}
								}
							}
						}
					}
				}
				JOINT RightShoulder
				{
					OFFSET 0.000000 0.000000 0.000000
					CHANNELS 3 Zrotation Yrotation Xrotation
					JOINT RightArm
					{
						OFFSET -3.136600 1.374050 -0.404650
						CHANNELS 3 Zrotation Yrotation Xrotation
						JOINT RightForeArm
						{
							OFFSET -5.241900 -0.000000 -0.000000
							CHANNELS 3 Zrotation Yrotation Xrotation
							JOINT RightHand
							{
								OFFSET -3.444170 -0.000000 -0.000000
								CHANNELS 3 Zrotation Yrotation Xrotation
								JOINT RightFingerBase
								{
									OFFSET 0.000000 0.000000 0.000000
									CHANNELS 3 Zrotation Yrotation Xrotation
									JOINT RightHandIndex1
									{
										OFFSET -0.622530 -0.000000 -0.000000
										CHANNELS 3 Zrotation Yrotation Xrotation
										End Site
										{
											OFFSET 0.000000 0.000000 0.000000
										}
									}
								}
								JOINT RThumb
								{
									OFFSET 0.000000 0.000000 0.000000
									CHANNELS 3 Zrotation Yrotation Xrotation
									End Site
									{
										OFFSET 0.000000 0.000000 0.000000
									}
								}
							}
						}
					}
				}
			}
		}
	}
}
MOTION
Frames: 8
Frame Time: 0.008333
-12.061562 15.895907 -2.676560 -47.740663 83.518713 -17.686689 -8.400661 -1.935657 -0.926749 -10.766587 1.183887 -69.694672 -1.334780 3.738936 50.344187 2.290847 8.793715 -11.770640 -0.209401 -0.000000 -15.228900 11.462957 -0.334099 -5.320346 8.921912 -10.640309 -34.489977 -0.201595 -4.739355 63.888505 0.357286 7.591239 4.672274 1.527000 0.000000 -85.783800 -1.406802 0.063128 9.220209 -1.271074 0.356004 -1.574470 -6.474621 0.341871 -1.725380 9.751424 -4.612597 -6.951354 -2.394685 -0.161755 -0.253036 0.000000 0.000000 0.000000 -1.209989 10.980171 3.370853 -67.631644 23.196229 11.183384 -1.029483 -70.779296 0.000231 -1.523281 5.216935 -0.067440 -0.019871 0.049860 0.000000 0.000000 0.000000 0.000000 0.000000 0.000000 0.000000 8.586959 2.022968 -0.020829 69.356272 6.072610 13.219056 179.830649 87.597218 179.993129 -1.186726 2.638114 -0.031206 0.009005 -0.419192 0.000000 0.000000 0.000000 0.000000 0.000000 0.000000 0.000000 
-11.919228 15.877968 -2.696237 -47.594997 83.624619 -17.814408 -8.422759 -1.941273 -1.079041 -10.925930 1.234465 -69.197346 -1.295894 3.801710 51.500394 2.376531 9.042642 -13.074190 -0.471700 0.000000 -15.800900 11.523480 -0.294253 -5.309178 8.422520 -10.594243 -34.353355 -0.384110 -4.773200 64.798030 0.298542 7.769836 6.401668 1.822700 0.000000 -85.024600 -1.481758 0.047643 9.355700 -1.289918 0.340840 -1.552005 -6.501476 0.326709 -1.750940 9.708689 -4.531265 -6.921632 -2.447105 -0.165684 -0.247310 0.000000 0.000000 0.000000 -1.429741 10.800501 3.367652 -67.407849 22.175542 11.000145 -1.049027 -70.505803 -0.000236 -1.325539 5.277654 -0.059010 -0.024148 0.052480 0.000000 0.000000 0.000000 0.000000 0.000000 0.000000 0.000000 8.798203 2.058629 0.012026 69.607689 5.562211 12.887125 179.864914 88.411262 179.992834 -1.232563 2.682961 -0.032914 0.008057 -0.415044 0.000000 0.000000 0.000000 0.000000 0.000000 0.000000 0.000000 
-11.778669 15.862762 -2.715467 -47.570277 83.732507 -18.050771 -8.449148 -1.947332 -1.225095 -11.065899 1.283670 -68.628811 -1.266634 3.847083 52.494549 2.459331 9.282849 -14.324183 -0.735500 -0.000000 -16.453800 11.574064 -0.256918 -5.295686 7.986800 -10.506121 -34.249993 -0.558642 -4.804723 65.706659 0.220370 7.809792 8.088328 2.094000 -0.000000 -83.727300 -1.533911 0.034846 9.485839 -1.302761 0.327905 -1.525929 -6.522710 0.313969 -1.758257 9.647701 -4.449849 -6.878939 -2.500776 -0.169853 -0.237860 0.000000 0.000000 0.000000 -1.644356 10.645786 3.356119 -67.201906 21.045835 10.795408 -1.070447 -70.184848 -0.000824 -1.092614 5.359334 -0.048878 -0.029049 0.055260 0.000000 0.000000 0.000000 0.000000 0.000000 0.000000 0.000000 9.008818 2.076650 0.039875 69.870247 5.085487 12.537829 179.902975 89.358505 179.992486 -1.291875 2.727852 -0.034920 0.007534 -0.409954 0.000000 0.000000 0.000000 0.000000 0.000000 0.000000 0.000000 
-11.639697 15.850334 -2.734069 -47.632522 83.836545 -18.356884 -8.480480 -1.952602 -1.360350 -11.181576 1.330265 -68.010536 -1.243787 3.877593 53.339821 2.535911 9.507931 -15.474006 -0.989600 0.000000 -17.095700 11.614534 -0.221262 -5.278855 7.620133 -10.382466 -34.195983 -0.724283 -4.834574 66.621313 0.123970 7.673896 9.680887 2.309700 -0.000000 -81.894100 -1.567470 0.024660 9.602732 -1.310711 0.317101 -1.499476 -6.539426 0.303366 -1.752880 9.571482 -4.360628 -6.818276 -2.555557 -0.174340 -0.223002 0.000000 0.000000 0.000000 -1.858195 10.495044 3.335496 -67.018946 19.854576 10.540038 -1.091812 -69.848389 -0.001547 -0.820991 5.466287 -0.036745 -0.034460 0.058110 0.000000 0.000000 0.000000 0.000000 0.000000 0.000000 0.000000 9.219093 2.085281 0.065332 70.144236 4.633682 12.170034 -0.055543 89.559826 -0.007855 -1.356676 2.769715 -0.037128 0.007321 -0.403891 0.000000 0.000000 0.000000 0.000000 0.000000 0.000000 0.000000 
-11.502315 15.840618 -2.751947 -47.780147 83.932396 -18.727084 -8.516734 -1.956944 -1.482101 -11.268763 1.374244 -67.364924 -1.224340 3.896068 54.056148 2.603504 9.711813 -16.494076 -1.224800 -0.000000 -17.656000 11.644987 -0.187086 -5.259054 7.329159 -10.230615 -34.202692 -0.880192 -4.863893 67.545731 0.010794 7.315777 11.108192 2.431100 -0.000000 -79.613200 -1.584757 0.016400 9.702500 -1.314068 0.307805 -1.472695 -6.550643 0.294356 -1.732441 9.483216 -4.271814 -6.743825 -2.609711 -0.178957 -0.203851 0.000000 0.000000 0.000000 -2.059146 10.353772 3.305141 -66.872034 18.606723 10.231419 -1.112533 -69.500052 -0.002419 -0.509619 5.600444 -0.022210 -0.040329 0.061061 0.000000 0.000000 0.000000 0.000000 0.000000 0.000000 0.000000 9.425524 2.076619 0.089088 70.429026 4.219272 11.794960 -0.010643 88.337077 -0.008177 -1.426781 2.807264 -0.039437 0.007505 -0.396842 0.000000 0.000000 0.000000 0.000000 0.000000 0.000000 0.000000 
-11.366521 15.833583 -2.768917 -47.996723 84.018360 -19.141154 -8.557465 -1.959496 -1.588086 -11.328498 1.415378 -66.713904 -1.206328 3.905392 54.664045 2.660622 9.890826 -17.371670 -1.435100 0.000000 -18.090501 11.665760 -0.153342 -5.236418 7.116123 -10.059043 -34.283160 -1.026969 -4.893775 68.483807 -0.118155 6.693744 12.310247 2.422700 -0.000000 -76.985300 -1.590259 0.009117 9.781318 -1.313817 0.299100 -1.447163 -6.556482 0.285952 -1.700259 9.386796 -4.181845 -6.655511 -2.662434 -0.183650 -0.180309 0.000000 0.000000 0.000000 -2.241096 10.210388 3.265242 -66.768202 17.329827 9.858920 -1.131147 -69.159770 -0.003452 -0.157879 5.761029 -0.004976 -0.046543 0.064134 0.000000 0.000000 0.000000 0.000000 0.000000 0.000000 0.000000 9.626844 2.053542 0.113287 70.723344 3.840072 11.415594 0.037500 86.975583 -0.008487 -1.504618 2.836768 -0.041946 0.008157 -0.388839 0.000000 0.000000 0.000000 0.000000 0.000000 0.000000 0.000000 
-11.232449 15.829211 -2.784820 -48.283792 84.093980 -19.598344 -8.601760 -1.960173 -1.678226 -11.363218 1.455665 -66.074958 -1.188735 3.908170 55.183353 2.706961 10.043233 -18.110593 -1.618200 -0.000000 -18.387401 11.677339 -0.119348 -5.211700 6.982508 -9.873871 -34.444618 -1.165410 -4.925325 69.435188 -0.262111 5.775761 13.226321 2.256800 0.000000 -74.143900 -1.586402 0.001524 9.839098 -1.310369 0.289779 -1.422432 -6.556394 0.277034 -1.655452 9.285965 -4.099468 -6.558660 -2.712237 -0.188232 -0.153939 0.000000 0.000000 0.000000 -2.392611 10.067949 3.215838 -66.713625 16.027616 9.430528 -1.146951 -68.834836 -0.004651 0.231411 5.945712 0.015158 -0.053017 0.067400 0.000000 0.000000 0.000000 0.000000 0.000000 0.000000 0.000000 9.820266 2.008617 0.139092 71.025863 3.506075 11.040865 0.088882 85.476260 -0.008807 -1.595352 2.856067 -0.044655 0.009413 -0.379941 0.000000 0.000000 0.000000 0.000000 0.000000 0.000000 0.000000 
-11.100164 15.827438 -2.799478 -48.642175 84.160855 -20.097158 -8.648529 -1.958583 -1.752872 -11.378187 1.497295 -65.462002 -1.171612 3.906553 55.630379 2.743308 10.168897 -18.726853 -1.774900 -0.000000 -18.564799 11.680290 -0.084085 -5.185250 6.926624 -9.681164 -34.694434 -1.296661 -4.959434 70.397940 -0.421118 4.549646 13.814975 1.923200 -0.000000 -71.197900 -1.576140 -0.007753 9.875878 -1.304450 0.278524 -1.399319 -6.550833 0.266236 -1.601725 9.184587 -4.023780 -6.454872 -2.758635 -0.192650 -0.125238 0.000000 0.000000 0.000000 -2.508802 9.917399 3.157898 -66.707108 14.719614 8.950338 -1.158715 -68.544702 -0.006018 0.654075 6.149946 0.038491 -0.059633 0.070908 0.000000 0.000000 0.000000 0.000000 0.000000 0.000000 0.000000 10.005217 1.944973 0.168587 71.333778 3.212408 10.670966 0.143210 83.850072 -0.009163 -1.704908 2.861462 -0.047764 0.011347 -0.370249 0.000000 0.000000 0.000000 0.000000 0.000000 0.000000 0.000000 
